<?xml version="1.0" encoding="UTF-8"?>
<!DOCTYPE svg PUBLIC "-//W3C//DTD SVG 1.1//EN" "http://www.w3.org/Graphics/SVG/1.1/DTD/svg11.dtd">
<!-- Creator: CorelDRAW X7 -->
<svg xmlns="http://www.w3.org/2000/svg" xml:space="preserve" width="208.527mm" height="140.206mm" version="1.1" style="shape-rendering:geometricPrecision; text-rendering:geometricPrecision; image-rendering:optimizeQuality; fill-rule:evenodd; clip-rule:evenodd"
viewBox="0 0 20804 13988"
 xmlns:xlink="http://www.w3.org/1999/xlink">
 <defs>
  <style type="text/css">
   <![CDATA[
    .str0 {stroke:#E6E6E6;stroke-width:19.953}
    .fil2 {fill:#FEFEFE}
    .fil3 {fill:black}
    .fil6 {fill:#00DA0B}
    .fil1 {fill:#F1592A}
    .fil5 {fill:black;fill-rule:nonzero}
    .fil4 {fill:black;fill-rule:nonzero}
    .fil0 {fill:#FEFEFE;fill-opacity:0.831373}
   ]]>
  </style>
     <clipPath id="id0">
      <path d="M0 0l14238 165 0 13823 -14238 -166 0 -13822z"/>
     </clipPath>
     <clipPath id="id1">
      <path d="M11317 1200l7727 349 0 4231 -7727 -348 0 -4232z"/>
     </clipPath>
     <clipPath id="id2">
      <path d="M12041 6187l8763 0 0 5195 -8763 0 0 -5195z"/>
     </clipPath>
 </defs>
 <g id="Camada_x0020_1">
  <metadata id="CorelCorpID_0Corel-Layer"/>
  <g id="_2303658160272">
   <g>
    <g style="clip-path:url(#id0)">
     <image x="0" y="0" width="14238" height="13988" xlink:href="banner_Images\banner_ImgID1.png"/>
    </g>
   </g>
   <path class="fil0" d="M6967 912c3337,0 6043,2691 6043,6010 0,3319 -2706,6010 -6043,6010 -3337,0 -6043,-2691 -6043,-6010 0,-3319 2706,-6010 6043,-6010z"/>
   <g>
    <path class="fil1" d="M3171 7926c87,-52 515,-532 617,-643l1864 -1972c93,43 1365,1356 1488,1425l876 -888c145,-157 832,-821 869,-910l-579 -596c96,-76 1436,-358 1515,-431 -475,-479 -1310,-943 -2208,-1065 -2591,-354 -4806,1803 -4570,4390 13,141 74,601 128,690z"/>
    <path class="fil1" d="M8941 4510c51,97 375,369 431,462 -21,42 3,5 -30,45l-235 244c-86,91 -161,166 -271,277l-1082 1108c-94,95 -170,176 -271,276 -90,90 -179,198 -274,275 -67,-24 -656,-621 -754,-718l-752 -724c-57,33 -2054,2169 -2197,2323 -114,123 -687,715 -731,795 30,50 479,473 545,522 201,-209 398,-419 596,-633l1804 -1910c117,52 1379,1380 1506,1436 445,-446 911,-967 1334,-1383 168,-166 1294,-1359 1352,-1387l406 401c60,-73 337,-1189 405,-1436 37,-133 113,-357 127,-482 -104,7 -1868,483 -1909,509z"/>
    <path class="fil1" d="M9393 10303c169,-30 649,-520 763,-655 196,-232 151,-140 151,-553l0 -2463c0,-174 31,-199 -68,-293 -80,-78 -276,-309 -361,-358 -63,31 -247,242 -300,299 -166,177 -186,94 -185,420 1,1192 -15,2421 0,3603z"/>
    <path class="fil1" d="M8194 10883c205,-6 742,-287 912,-371l0 -3727c-90,48 -387,389 -477,480 -90,90 -438,413 -438,513l3 3105z"/>
    <path class="fil1" d="M5798 10816c124,68 732,205 910,194 18,-366 2,-774 2,-1145 0,-382 0,-764 0,-1146 0,-191 33,-452 -49,-530 -150,-144 -784,-788 -866,-830l3 3457z"/>
    <path class="fil1" d="M6999 11033c299,13 639,-15 911,-76l-6 -2933c-127,102 -604,658 -695,694 -63,-50 -121,-143 -212,-164l2 2479z"/>
    <path class="fil1" d="M5505 7549c-71,46 -895,931 -905,970l-5 1244c0,398 -41,369 123,489 118,86 637,432 792,443l-5 -3146z"/>
    <path class="fil1" d="M10596 9011c117,-97 302,-598 368,-798 301,-914 249,-1951 -123,-2835 -29,-68 -31,-64 -64,-88 -251,753 -185,999 -185,1769 0,462 -21,1569 4,1952z"/>
    <path class="fil1" d="M3825 9335c5,6 36,64 50,83 77,104 359,447 435,472l-3 -1060c-40,17 -440,442 -482,505z"/>
   </g>
   <g>
    <g style="clip-path:url(#id1)">
     <image x="11317" y="1200" width="7727" height="4580" xlink:href="banner_Images\banner_ImgID2.png"/>
    </g>
   </g>
   <rect class="fil2 str0" x="11602" y="1499" width="7166" height="3659" rx="677" ry="381"/>
   <g>
    <g>
     <path class="fil1" d="M17326 3723c416,260 624,391 624,391 0,0 -208,137 -624,410 0,0 0,-267 0,-801z"/>
     <path class="fil1" d="M16410 4543c553,-334 830,-501 830,-501 -4,-321 -5,-482 -5,-482 264,163 396,244 396,244 410,-261 615,-391 615,-391 -1240,-786 -1860,-1179 -1860,-1179 16,1540 24,2309 24,2309z"/>
    </g>
    <path class="fil3" d="M12843 3530c-168,0 -252,0 -252,0 3,-152 3,-366 0,-641 171,0 257,0 257,0 0,77 0,116 0,116 63,-81 145,-120 247,-116 -5,142 -7,213 -7,213 -93,-10 -175,25 -245,107 1,198 1,305 0,321z"/>
    <path class="fil3" d="M13488 3376c70,-1 134,-23 190,-67 71,81 107,121 107,121 -123,101 -266,134 -427,100 -187,-39 -276,-160 -269,-361 21,-172 127,-265 316,-280 185,-21 311,37 380,173 28,62 38,127 28,195 -323,1 -484,2 -484,2 6,86 59,125 159,117zm-18 -348c-86,4 -131,45 -136,123 165,2 247,3 247,3 -6,-78 -44,-120 -111,-126z"/>
    <path class="fil3" d="M14210 3530c-166,5 -294,-22 -382,-81 50,-95 76,-142 76,-142 91,66 190,91 297,73 58,-44 46,-73 -38,-85 -179,-24 -273,-83 -283,-176 -20,-120 34,-197 161,-230 103,-17 237,5 402,66 -54,84 -81,126 -81,126 -91,-62 -175,-80 -252,-52 -32,54 -1,82 93,85 169,19 260,84 273,197 2,130 -87,203 -266,219z"/>
    <path class="fil3" d="M15198 2889c-158,0 -237,0 -237,0 -2,267 -3,401 -3,401 -58,55 -118,60 -180,14 0,-228 0,-366 0,-415 -170,0 -254,0 -254,0 3,318 4,477 4,477 18,107 87,162 207,164 88,5 160,-25 214,-90 -4,30 -4,60 0,90 166,0 249,0 249,0 0,-428 0,-641 0,-641z"/>
    <path class="fil3" d="M15557 3530c-105,0 -189,0 -252,0 0,-151 0,-467 0,-950 168,3 252,5 252,5 0,630 0,945 0,945z"/>
    <path class="fil3" d="M16148 2889c-114,0 -171,0 -171,0 -9,50 -9,-14 0,-193 0,0 -80,0 -240,-2 0,0 -1,65 -5,195 -80,0 -120,0 -120,0 0,134 -1,202 -1,202 76,0 114,0 114,0 1,182 1,274 1,274 13,113 100,171 263,173 104,-1 157,-1 157,-1 -4,-134 -5,-201 -5,-201 -89,-3 -133,-4 -133,-4 -36,-13 -48,-53 -38,-120 1,-84 2,-126 2,-126 117,1 176,2 176,2 3,-127 3,-194 0,-199z"/>
    <polygon class="fil4" points="12591,3970 12591,3766 12705,3766 12705,3794 12624,3794 12624,3845 12705,3845 12705,3874 12624,3874 12624,3940 12705,3940 12705,3970 "/>
    <path id="1" class="fil4" d="M12776 3940l28 0c16,0 27,-1 35,-3 7,-2 14,-6 20,-11 7,-6 13,-14 17,-24 4,-10 6,-21 6,-34 0,-13 -2,-25 -6,-35 -4,-9 -10,-18 -17,-24 -6,-5 -13,-8 -21,-11 -8,-2 -21,-3 -38,-3l-12 0 -12 0 0 145zm-33 30l0 -204 45 0c29,0 49,1 61,4 12,3 22,8 31,15 12,9 21,20 27,35 6,14 9,30 9,48 0,18 -3,34 -9,48 -6,14 -15,26 -27,35 -9,7 -19,11 -30,14 -11,3 -29,5 -53,5l-9 0 -45 0z"/>
    <path id="2" class="fil4" d="M12954 3766l32 0 0 124c0,18 5,32 13,41 9,9 21,14 38,14 17,0 30,-5 38,-14 9,-9 13,-23 13,-41l0 -124 33 0 0 127c0,27 -7,48 -21,62 -14,13 -35,20 -63,20 -28,0 -49,-7 -63,-20 -14,-14 -20,-35 -20,-62l0 -127z"/>
    <path id="3" class="fil4" d="M13331 3815c-10,-8 -20,-14 -30,-18 -11,-4 -22,-6 -33,-6 -22,0 -41,8 -55,22 -14,14 -20,33 -20,55 0,22 6,41 20,55 14,14 31,21 51,21 12,0 24,-2 35,-6 11,-4 21,-11 31,-19l0 37c-9,7 -18,11 -29,14 -10,4 -22,5 -34,5 -16,0 -30,-2 -43,-7 -13,-6 -25,-13 -35,-23 -10,-10 -18,-21 -23,-34 -5,-14 -8,-28 -8,-43 0,-15 3,-29 8,-42 5,-13 13,-25 23,-35 10,-10 22,-17 35,-22 13,-6 27,-8 42,-8 12,0 24,2 35,5 11,4 21,9 31,16l-1 33z"/>
    <path id="4" class="fil4" d="M13415 3890l57 0 -21 -47c-1,-3 -3,-6 -4,-10 -1,-4 -3,-8 -4,-13 -1,4 -2,9 -3,12 -2,4 -3,8 -4,11l-21 47zm92 80l-24 -53 -80 0 -24 53 -35 0 99 -212 99 212 -35 0z"/>
    <path id="5" class="fil4" d="M13724 3815c-9,-8 -19,-14 -29,-18 -11,-4 -22,-6 -33,-6 -23,0 -41,8 -55,22 -14,14 -21,33 -21,55 0,22 7,41 21,55 13,14 31,21 51,21 12,0 24,-2 35,-6 11,-4 21,-11 31,-19l0 37c-9,7 -18,11 -29,14 -10,4 -22,5 -34,5 -16,0 -30,-2 -43,-7 -14,-6 -25,-13 -35,-23 -10,-10 -18,-21 -23,-34 -6,-14 -8,-28 -8,-43 0,-15 2,-29 8,-42 5,-13 13,-25 23,-35 10,-10 22,-17 35,-22 13,-6 27,-8 42,-8 12,0 24,2 35,5 10,4 21,9 31,16l-2 33zm-99 210l0 -15c8,2 14,3 20,4 5,0 10,1 14,1 5,0 8,-1 11,-2 2,-2 3,-4 3,-8 0,-3 -1,-6 -4,-7 -3,-2 -8,-3 -14,-3 -1,0 -2,0 -3,0 -1,0 -2,1 -3,1l0 -26 12 0 0 12 2 0c11,0 18,2 24,6 5,4 7,10 7,18 0,8 -3,14 -8,18 -6,4 -14,6 -25,6 -4,0 -10,0 -16,-1 -6,-1 -12,-3 -20,-4z"/>
    <path id="6" class="fil4" d="M13809 3890l57 0 -21 -47c-2,-3 -3,-6 -4,-10 -1,-4 -3,-8 -4,-13 -1,4 -2,9 -4,12 -1,4 -2,8 -3,11l-21 47zm91 80l-23 -53 -81 0 -23 53 -35 0 99 -212 98 212 -35 0zm-23 -259c-1,9 -4,16 -9,21 -5,6 -11,8 -18,8 -1,0 -2,0 -3,0 -2,0 -3,-1 -4,-1l-17 -4c-2,-1 -3,-1 -4,-1 0,0 -1,0 -2,0 -3,0 -5,1 -7,2 -2,2 -4,4 -5,7l-12 0c2,-9 5,-17 9,-21 5,-5 10,-8 17,-8 2,0 3,0 4,1 2,0 3,0 5,0l16 5c1,0 2,0 2,0 1,0 3,0 4,0 3,0 6,0 8,-2 2,-2 3,-4 4,-7l12 0z"/>
    <path id="7" class="fil4" d="M14129 3868c0,-10 -2,-20 -5,-29 -4,-9 -10,-18 -17,-25 -7,-7 -14,-13 -24,-16 -9,-4 -18,-6 -28,-6 -10,0 -20,2 -29,5 -9,4 -17,10 -24,17 -7,7 -12,15 -16,25 -4,9 -6,19 -6,29 0,11 2,20 6,29 4,10 9,18 16,25 7,7 15,13 24,17 9,4 19,5 29,5 10,0 19,-1 28,-5 9,-4 17,-10 24,-17 7,-7 13,-15 17,-25 3,-9 5,-19 5,-29zm35 0c0,15 -3,28 -8,41 -6,13 -14,25 -24,35 -11,10 -22,18 -36,23 -13,6 -27,8 -41,8 -15,0 -29,-2 -42,-8 -14,-5 -25,-13 -36,-23 -10,-10 -18,-22 -23,-35 -6,-12 -8,-26 -8,-41 0,-14 2,-28 8,-41 5,-13 13,-25 23,-35 11,-10 23,-18 36,-23 13,-5 27,-8 42,-8 14,0 28,3 42,8 13,5 24,13 35,23 10,11 18,22 24,35 5,13 8,27 8,41z"/>
    <polygon id="8" class="fil4" points="14288,3970 14288,3766 14402,3766 14402,3794 14321,3794 14321,3845 14402,3845 14402,3874 14321,3874 14321,3940 14402,3940 14402,3970 "/>
    <path id="9" class="fil4" d="M14559 3851l9 0c18,0 30,-2 36,-6 7,-4 10,-11 10,-21 0,-11 -4,-19 -10,-23 -7,-4 -19,-7 -36,-7l-9 0 0 57zm-2 27l0 92 -31 0 0 -204 50 0c15,0 26,1 33,2 7,2 13,5 18,8 7,5 12,11 15,19 4,8 6,17 6,27 0,10 -2,18 -6,27 -3,8 -8,14 -15,19 -5,4 -11,6 -18,8 -7,1 -18,2 -33,2l-6 0 -13 0z"/>
    <path id="10" class="fil4" d="M14711 3853l6 0c18,0 29,-2 35,-6 6,-4 9,-12 9,-22 0,-11 -3,-19 -10,-24 -6,-4 -17,-7 -34,-7l-6 0 0 59zm-2 25l0 92 -31 0 0 -204 46 0c14,0 24,1 32,2 7,2 14,5 19,9 6,5 11,11 14,19 4,8 6,17 6,26 0,16 -4,29 -12,38 -8,10 -20,15 -35,17l70 93 -37 0 -68 -92 -4 0z"/>
    <path id="11" class="fil4" d="M15012 3868c0,-10 -2,-20 -5,-29 -4,-9 -9,-18 -17,-25 -6,-7 -14,-13 -23,-16 -9,-4 -19,-6 -29,-6 -10,0 -20,2 -29,5 -9,4 -17,10 -24,17 -7,7 -12,15 -16,25 -4,9 -6,19 -6,29 0,11 2,20 6,29 4,10 9,18 16,25 7,7 15,13 24,17 9,4 19,5 29,5 10,0 19,-1 28,-5 9,-4 17,-10 24,-17 8,-7 13,-15 17,-25 3,-9 5,-19 5,-29zm35 0c0,15 -3,28 -8,41 -6,13 -14,25 -24,35 -10,10 -22,18 -36,23 -13,6 -27,8 -41,8 -15,0 -29,-2 -42,-8 -13,-5 -25,-13 -35,-23 -11,-10 -19,-22 -24,-35 -5,-12 -8,-26 -8,-41 0,-14 3,-28 8,-41 5,-13 13,-25 24,-35 10,-10 22,-18 35,-23 13,-5 27,-8 42,-8 15,0 29,3 42,8 13,5 25,13 35,23 10,11 18,22 24,35 5,13 8,27 8,41z"/>
    <path id="12" class="fil4" d="M15249 3815c-10,-8 -20,-14 -30,-18 -11,-4 -22,-6 -33,-6 -22,0 -40,8 -54,22 -14,14 -21,33 -21,55 0,22 6,41 20,55 14,14 31,21 51,21 13,0 24,-2 35,-6 11,-4 21,-11 31,-19l0 37c-9,7 -18,11 -29,14 -10,4 -22,5 -34,5 -15,0 -30,-2 -43,-7 -13,-6 -25,-13 -35,-23 -10,-10 -18,-21 -23,-34 -5,-14 -8,-28 -8,-43 0,-15 3,-29 8,-42 5,-13 13,-25 23,-35 10,-10 22,-17 35,-22 13,-6 27,-8 43,-8 12,0 23,2 34,5 11,4 21,9 31,16l-1 33z"/>
    <polygon id="13" class="fil4" points="15290,3970 15290,3766 15404,3766 15404,3794 15323,3794 15323,3845 15404,3845 15404,3874 15323,3874 15323,3940 15404,3940 15404,3970 "/>
    <path id="14" class="fil4" d="M15430 3929l26 -12c3,9 8,16 14,21 7,4 15,7 26,7 10,0 18,-3 23,-9 6,-5 9,-12 9,-21 0,-12 -10,-23 -30,-33 -3,-1 -5,-2 -6,-3 -23,-11 -38,-20 -45,-29 -8,-9 -11,-20 -11,-33 0,-17 5,-30 17,-40 11,-11 26,-16 44,-16 15,0 28,3 38,9 10,6 17,14 21,25l-26 13c-4,-6 -9,-11 -14,-14 -4,-3 -10,-4 -16,-4 -9,0 -16,2 -22,7 -5,4 -8,11 -8,18 0,13 12,24 35,35 2,1 3,1 4,2 20,9 34,18 42,27 7,9 11,20 11,33 0,19 -6,35 -18,46 -12,12 -29,17 -50,17 -17,0 -31,-4 -42,-12 -11,-8 -19,-19 -22,-34z"/>
    <path id="15" class="fil4" d="M15587 3929l26 -12c3,9 7,16 14,21 7,4 15,7 26,7 9,0 17,-3 23,-9 6,-5 9,-12 9,-21 0,-12 -10,-23 -30,-33 -3,-1 -5,-2 -6,-3 -23,-11 -38,-20 -45,-29 -8,-9 -12,-20 -12,-33 0,-17 6,-30 17,-40 12,-11 26,-16 45,-16 15,0 27,3 37,9 11,6 18,14 21,25l-25 13c-4,-6 -9,-11 -14,-14 -5,-3 -10,-4 -17,-4 -9,0 -16,2 -21,7 -5,4 -8,11 -8,18 0,13 12,24 35,35 2,1 3,1 4,2 20,9 34,18 41,27 8,9 12,20 12,33 0,19 -6,35 -18,46 -13,12 -29,17 -50,17 -17,0 -31,-4 -43,-12 -11,-8 -18,-19 -21,-34z"/>
    <path id="16" class="fil4" d="M15930 3868c0,-10 -2,-20 -6,-29 -4,-9 -9,-18 -16,-25 -7,-7 -15,-13 -24,-16 -9,-4 -19,-6 -29,-6 -10,0 -19,2 -28,5 -9,4 -18,10 -25,17 -7,7 -12,15 -16,25 -3,9 -5,19 -5,29 0,11 2,20 5,29 4,10 9,18 16,25 7,7 15,13 25,17 9,4 18,5 28,5 10,0 20,-1 29,-5 9,-4 17,-10 24,-17 7,-7 12,-15 16,-25 4,-9 6,-19 6,-29zm34 0c0,15 -3,28 -8,41 -5,13 -13,25 -24,35 -10,10 -22,18 -35,23 -13,6 -27,8 -42,8 -14,0 -28,-2 -42,-8 -13,-5 -25,-13 -35,-23 -11,-10 -18,-22 -24,-35 -5,-12 -8,-26 -8,-41 0,-14 3,-28 8,-41 6,-13 13,-25 24,-35 10,-10 22,-18 35,-23 13,-5 27,-8 42,-8 15,0 29,3 42,8 13,5 25,13 35,23 11,11 19,22 24,35 5,13 8,27 8,41z"/>
    <path id="17" class="fil4" d="M15990 3929l27 -12c2,9 7,16 14,21 6,4 15,7 25,7 10,0 18,-3 24,-9 6,-5 9,-12 9,-21 0,-12 -10,-23 -30,-33 -3,-1 -5,-2 -7,-3 -22,-11 -37,-20 -45,-29 -7,-9 -11,-20 -11,-33 0,-17 6,-30 17,-40 11,-11 26,-16 45,-16 15,0 27,3 37,9 10,6 17,14 21,25l-26 13c-4,-6 -8,-11 -13,-14 -5,-3 -10,-4 -17,-4 -9,0 -16,2 -21,7 -5,4 -8,11 -8,18 0,13 12,24 35,35 1,1 3,1 4,2 20,9 34,18 41,27 8,9 12,20 12,33 0,19 -6,35 -19,46 -12,12 -28,17 -49,17 -17,0 -32,-4 -43,-12 -11,-8 -18,-19 -22,-34z"/>
    <polygon id="18" class="fil4" points="14283,4312 14283,4108 14397,4108 14397,4136 14316,4136 14316,4187 14397,4187 14397,4216 14316,4216 14316,4282 14397,4282 14397,4312 "/>
    <path id="19" class="fil4" d="M14601 4211c0,-1 -1,-6 -1,-13 -1,-6 -2,-11 -2,-15 -1,5 -2,10 -4,14 -1,5 -3,10 -6,14l-53 109 -53 -111c-3,-4 -5,-9 -6,-13 -2,-4 -3,-9 -4,-13 -1,5 -1,9 -2,14 0,4 -1,9 -2,14l-22 101 -31 0 49 -213 60 129c1,2 2,5 4,10 2,5 4,11 7,18 2,-6 5,-14 9,-23 1,-2 2,-4 3,-5l58 -129 50 213 -31 0 -23 -101z"/>
    <path id="20" class="fil4" d="M14714 4193l9 0c18,0 31,-2 37,-6 6,-4 9,-11 9,-21 0,-11 -3,-18 -10,-23 -6,-4 -18,-7 -36,-7l-9 0 0 57zm-2 27l0 92 -31 0 0 -204 50 0c15,0 26,1 33,2 7,2 13,5 19,8 6,5 11,11 15,19 3,8 5,17 5,27 0,10 -2,19 -5,27 -4,8 -9,14 -15,19 -6,4 -12,6 -19,8 -7,2 -18,2 -33,2l-6 0 -13 0z"/>
    <path id="21" class="fil4" d="M14866 4195l6 0c18,0 30,-2 35,-6 6,-4 9,-12 9,-22 0,-11 -3,-19 -9,-24 -6,-4 -18,-7 -35,-7l-6 0 0 59zm-2 26l0 91 -31 0 0 -204 46 0c14,0 25,1 32,3 8,1 14,4 19,8 6,5 11,12 15,19 3,8 5,17 5,26 0,16 -4,29 -12,38 -8,10 -19,15 -35,17l70 93 -37 0 -68 -91 -4 0z"/>
    <polygon id="22" class="fil4" points="14993,4312 14993,4108 15107,4108 15107,4136 15026,4136 15026,4187 15107,4187 15107,4216 15026,4216 15026,4282 15107,4282 15107,4312 "/>
    <path id="23" class="fil4" d="M15133 4271l27 -12c2,9 7,16 14,21 6,4 15,7 25,7 10,0 18,-3 24,-8 6,-6 8,-13 8,-22 0,-12 -10,-23 -29,-32 -3,-2 -5,-3 -7,-3 -22,-11 -37,-21 -45,-30 -7,-9 -11,-20 -11,-33 0,-16 6,-30 17,-40 11,-11 26,-16 44,-16 15,0 28,3 38,9 10,6 17,14 21,25l-26 13c-4,-6 -8,-11 -13,-14 -5,-3 -11,-4 -17,-4 -9,0 -16,2 -21,7 -6,4 -8,11 -8,18 0,13 11,24 34,35 2,1 4,1 5,2 20,9 34,18 41,27 8,9 11,20 11,33 0,20 -6,35 -18,46 -12,12 -29,17 -49,17 -18,0 -32,-4 -43,-12 -11,-8 -18,-19 -22,-34z"/>
    <path id="24" class="fil4" d="M15345 4232l57 0 -21 -47c-2,-3 -3,-6 -4,-10 -1,-4 -3,-8 -4,-13 -1,5 -2,9 -4,13 -1,3 -2,7 -3,10l-21 47zm91 80l-23 -53 -81 0 -23 53 -35 0 99 -212 98 212 -35 0z"/>
    <path id="25" class="fil4" d="M15524 4195l6 0c17,0 29,-2 35,-6 5,-4 8,-12 8,-22 0,-11 -3,-19 -9,-24 -6,-4 -18,-7 -34,-7l-6 0 0 59zm-2 26l0 91 -31 0 0 -204 46 0c13,0 24,1 31,3 8,1 14,4 20,8 6,5 11,12 14,19 4,8 5,17 5,26 0,16 -4,29 -12,38 -7,10 -19,15 -34,17l70 93 -38 0 -68 -91 -3 0z"/>
    <polygon id="26" class="fil4" points="15651,4312 15651,4108 15684,4108 15684,4312 "/>
    <path id="27" class="fil4" d="M15775 4232l57 0 -21 -47c-1,-3 -3,-6 -4,-10 -1,-4 -3,-8 -4,-13 -1,5 -2,9 -3,13 -2,3 -3,7 -4,10l-21 47zm92 80l-23 -53 -81 0 -24 53 -35 0 99 -212 99 212 -35 0z"/>
    <polygon id="28" class="fil4" points="15921,4312 15921,4108 15954,4108 15954,4312 "/>
    <path id="29" class="fil4" d="M15990 4271l27 -12c2,9 7,16 14,21 6,4 15,7 25,7 10,0 18,-3 24,-8 6,-6 9,-13 9,-22 0,-12 -10,-23 -30,-32 -3,-2 -5,-3 -7,-3 -22,-11 -37,-21 -45,-30 -7,-9 -11,-20 -11,-33 0,-16 6,-30 17,-40 11,-11 26,-16 45,-16 15,0 27,3 37,9 10,6 17,14 21,25l-26 13c-4,-6 -8,-11 -13,-14 -5,-3 -10,-4 -17,-4 -9,0 -16,2 -21,7 -5,4 -8,11 -8,18 0,13 12,24 35,35 1,1 3,1 4,2 20,9 34,18 41,27 8,9 12,20 12,33 0,20 -6,35 -19,46 -12,12 -28,17 -49,17 -17,0 -32,-4 -43,-12 -11,-8 -18,-19 -22,-34z"/>
   </g>
   <g>
    <g style="clip-path:url(#id2)">
     <image x="12041" y="6187" width="8763" height="5195" xlink:href="banner_Images\banner_ImgID3.png"/>
    </g>
   </g>
   <rect class="fil2 str0" x="11979" y="6377" width="8065" height="4498" rx="762" ry="469"/>
   <polygon class="fil5" points="12965,7747 12666,7747 12666,7287 12962,7287 12962,7355 12749,7355 12749,7480 12920,7480 12920,7547 12749,7547 12749,7675 12965,7675 "/>
   <path id="1" class="fil5" d="M12991 7669l72 -14c11,27 35,41 73,41 47,0 71,-14 71,-42 0,-9 -4,-16 -11,-22 -8,-6 -16,-10 -26,-12l-62 -12c-69,-13 -104,-47 -104,-101 0,-30 11,-55 33,-76 22,-21 54,-32 98,-32 71,0 115,27 131,79l-68 14c-7,-25 -28,-38 -61,-38 -41,0 -62,13 -62,38 0,18 17,30 50,37l73 15c57,12 85,44 85,98 0,37 -14,66 -44,84 -29,19 -64,28 -104,28 -35,0 -65,-7 -92,-21 -27,-14 -44,-36 -52,-64z"/>
   <path id="2" class="fil5" d="M13542 7622l66 7c-8,42 -25,74 -49,94 -25,21 -54,31 -89,31 -47,0 -83,-17 -108,-52 -26,-34 -38,-76 -38,-125 0,-52 13,-94 41,-128 28,-33 65,-50 111,-50 74,0 118,39 132,118l-66 9c-6,-43 -27,-64 -62,-64 -26,0 -45,12 -57,35 -12,22 -18,50 -18,82 0,35 6,61 19,80 12,18 29,28 51,28 34,0 56,-22 67,-65z"/>
   <path id="3" class="fil5" d="M13800 7754c-50,0 -88,-18 -115,-54 -27,-37 -40,-78 -40,-125 0,-50 15,-92 44,-126 30,-33 68,-50 116,-50 46,0 83,17 113,49 29,33 44,75 44,127 0,54 -15,97 -46,130 -30,32 -69,49 -116,49zm3 -63c52,0 78,-39 78,-116 0,-35 -7,-62 -19,-82 -12,-21 -31,-31 -57,-31 -27,0 -46,11 -59,31 -13,21 -19,49 -19,83 0,37 7,66 20,85 14,20 32,30 56,30z"/>
   <polygon id="4" class="fil5" points="14109,7747 14032,7747 14032,7287 14109,7287 "/>
   <path id="5" class="fil5" d="M14483 7747l-77 0 0 -223c0,-24 -5,-41 -15,-51 -11,-9 -23,-14 -36,-14 -22,0 -40,8 -55,26 -15,17 -22,45 -22,85l0 177 -77 0 0 -460 77 0 0 179c19,-49 52,-73 100,-73 70,0 105,40 105,120l0 234z"/>
   <path id="6" class="fil5" d="M14867 7747l-74 0c-6,-21 -10,-44 -11,-69 -21,51 -59,76 -116,76 -34,0 -61,-10 -81,-30 -21,-20 -31,-45 -31,-75 0,-78 68,-117 206,-117 5,0 12,0 22,0l0 -26c0,-35 -25,-52 -73,-52 -46,0 -73,17 -79,52l-65 -9c3,-29 18,-52 43,-70 26,-19 63,-28 112,-28 26,0 47,3 64,7 17,4 31,12 42,22 12,11 20,22 24,34 4,12 6,33 6,62l0 154c0,22 4,45 11,69zm-85 -173c-100,0 -149,23 -149,71 0,14 5,26 15,36 10,10 25,15 45,15 29,0 51,-9 66,-28 15,-18 23,-39 23,-63l0 -31z"/>
   <path id="7" class="fil5" d="M15199 7862l-78 0 0 -456 73 0 0 60c24,-45 59,-67 105,-67 37,0 67,17 90,49 22,33 34,75 34,126 0,49 -11,91 -32,126 -22,36 -54,54 -96,54 -44,0 -76,-18 -96,-55l0 163zm0 -255c0,25 8,45 22,62 15,16 31,24 49,24 25,0 43,-11 54,-32 11,-21 17,-49 17,-82 0,-34 -6,-62 -17,-84 -12,-22 -29,-33 -51,-33 -21,0 -38,9 -52,27 -15,18 -22,41 -22,70l0 48z"/>
   <path id="8" class="fil5" d="M15709 7638l70 10c-9,30 -27,56 -53,76 -26,20 -59,30 -98,30 -47,0 -85,-16 -114,-48 -29,-31 -43,-74 -43,-128 0,-52 14,-94 43,-128 29,-34 69,-51 118,-51 49,0 86,17 113,50 26,33 40,76 40,128l-1 9 -233 0c0,23 2,42 6,56 5,14 13,26 26,36 13,10 30,16 49,16 38,0 64,-19 77,-56zm-5 -102c0,-24 -7,-44 -22,-60 -14,-15 -32,-23 -53,-23 -22,0 -39,7 -53,22 -15,14 -23,35 -25,61l153 0z"/>
   <path id="9" class="fil5" d="M15932 7747l-77 0 0 -341 69 0 0 82c10,-32 24,-55 41,-70 17,-14 35,-22 53,-22 3,0 6,0 10,1l0 82c-39,0 -65,13 -77,38 -13,25 -19,49 -19,72l0 158z"/>
   <path id="10" class="fil5" d="M16185 7747l-74 0 0 -281 -50 0 0 -60 50 0 0 -16c0,-34 8,-61 25,-81 16,-20 48,-30 98,-30 7,0 16,0 27,1l0 60c-10,-1 -16,-1 -20,-1 -19,0 -32,2 -40,8 -7,5 -12,11 -13,17 -2,7 -3,21 -3,42l76 0 0 60 -76 0 0 281z"/>
   <path id="11" class="fil5" d="M16528 7638l69 10c-9,30 -26,56 -52,76 -26,20 -59,30 -98,30 -48,0 -86,-16 -114,-48 -29,-31 -43,-74 -43,-128 0,-52 14,-94 43,-128 29,-34 68,-51 118,-51 49,0 86,17 113,50 26,33 39,76 39,128l0 9 -234 0c0,23 3,42 7,56 4,14 13,26 26,36 13,10 29,16 49,16 38,0 64,-19 77,-56zm-5 -102c0,-24 -7,-44 -22,-60 -14,-15 -32,-23 -54,-23 -21,0 -38,7 -53,22 -14,14 -22,35 -25,61l154 0z"/>
   <path id="12" class="fil5" d="M16750 7367l-77 0 0 -80 77 0 0 80zm0 380l-77 0 0 -341 77 0 0 341z"/>
   <path id="13" class="fil5" d="M17000 7687l0 60c-23,5 -41,7 -53,7 -21,0 -39,-4 -53,-12 -15,-8 -26,-19 -33,-34 -7,-14 -10,-36 -10,-66l0 -176 -43 0 0 -60 47 0 7 -88 63 -6 0 94 69 0 0 60 -69 0 0 166c0,21 4,36 12,44 8,8 22,11 44,11 6,0 12,0 19,0z"/>
   <path id="14" class="fil5" d="M17356 7747l-73 0c-7,-21 -11,-44 -12,-69 -20,51 -59,76 -115,76 -34,0 -61,-10 -82,-30 -20,-20 -31,-45 -31,-75 0,-78 69,-117 206,-117 6,0 13,0 22,0l0 -26c0,-35 -24,-52 -72,-52 -47,0 -73,17 -80,52l-65 -9c4,-29 18,-52 44,-70 25,-19 63,-28 111,-28 26,0 48,3 65,7 16,4 30,12 42,22 11,11 19,22 23,34 5,12 7,33 7,62l0 154c0,22 3,45 10,69zm-85 -173c-99,0 -149,23 -149,71 0,14 5,26 15,36 10,10 25,15 46,15 29,0 51,-9 66,-28 15,-18 22,-39 22,-63l0 -31z"/>
   <path id="15" class="fil5" d="M17689 7862l-78 0 0 -456 73 0 0 60c24,-45 58,-67 104,-67 38,0 68,17 90,49 23,33 34,75 34,126 0,49 -10,91 -32,126 -21,36 -53,54 -96,54 -44,0 -75,-18 -95,-55l0 163zm0 -255c0,25 7,45 22,62 15,16 31,24 49,24 24,0 42,-11 54,-32 11,-21 17,-49 17,-82 0,-34 -6,-62 -18,-84 -11,-22 -28,-33 -51,-33 -20,0 -38,9 -52,27 -14,18 -21,41 -21,70l0 48z"/>
   <path id="16" class="fil5" d="M18274 7747l-74 0c-6,-21 -10,-44 -11,-69 -21,51 -59,76 -116,76 -34,0 -61,-10 -81,-30 -21,-20 -31,-45 -31,-75 0,-78 68,-117 206,-117 5,0 12,0 22,0l0 -26c0,-35 -24,-52 -73,-52 -46,0 -73,17 -79,52l-65 -9c3,-29 18,-52 43,-70 26,-19 63,-28 112,-28 26,0 47,3 64,7 17,4 31,12 42,22 12,11 20,22 24,34 4,12 6,33 6,62l0 154c0,22 4,45 11,69zm-85 -173c-100,0 -149,23 -149,71 0,14 5,26 15,36 10,10 25,15 45,15 29,0 51,-9 66,-28 15,-18 23,-39 23,-63l0 -31z"/>
   <path id="17" class="fil5" d="M18432 7747l-77 0 0 -341 70 0 0 82c10,-32 23,-55 41,-70 17,-14 35,-22 53,-22 2,0 6,0 10,1l0 82c-39,0 -65,13 -78,38 -12,25 -19,49 -19,72l0 158z"/>
   <path id="18" class="fil5" d="M18876 7747l-74 0c-6,-21 -10,-44 -11,-69 -21,51 -59,76 -116,76 -34,0 -61,-10 -81,-30 -21,-20 -31,-45 -31,-75 0,-78 68,-117 206,-117 5,0 12,0 22,0l0 -26c0,-35 -25,-52 -73,-52 -46,0 -73,17 -79,52l-65 -9c3,-29 18,-52 43,-70 26,-19 63,-28 112,-28 26,0 47,3 64,7 17,4 31,12 42,22 12,11 19,22 24,34 4,12 6,33 6,62l0 154c0,22 4,45 11,69zm-85 -173c-100,0 -149,23 -149,71 0,14 5,26 15,36 10,10 25,15 45,15 29,0 51,-9 66,-28 15,-18 23,-39 23,-63l0 -31z"/>
   <path id="19" class="fil5" d="M19036 7429l0 84 -83 0 0 -84 83 0zm0 234l0 84 -83 0 0 -84 83 0z"/>
   <g>
    <polygon class="fil5" points="14057,9063 13758,9063 13758,8603 14054,8603 14054,8671 13841,8671 13841,8796 14012,8796 14012,8863 13841,8863 13841,8991 14057,8991 "/>
    <path id="1" class="fil5" d="M14633 9063l-81 0 0 -212c0,-44 -19,-66 -58,-66 -23,0 -41,8 -55,25 -13,16 -20,41 -20,74l0 179 -82 0 0 -212c0,-45 -18,-67 -55,-67 -22,0 -41,9 -56,27 -15,18 -23,42 -23,73l0 179 -79 0 0 -341 75 0 0 73c24,-53 62,-80 113,-80 50,0 83,27 98,80 27,-53 65,-80 114,-80 32,0 59,10 79,31 20,20 30,46 30,76l0 241z"/>
    <path id="2" class="fil5" d="M14803 9178l-78 0 0 -456 74 0 0 60c23,-45 58,-67 104,-67 38,0 68,17 90,49 23,33 34,75 34,126 0,49 -11,91 -32,126 -22,36 -54,54 -96,54 -44,0 -76,-18 -96,-55l0 163zm0 -255c0,25 8,45 22,62 15,16 32,24 49,24 25,0 43,-11 54,-32 12,-21 17,-49 17,-82 0,-34 -5,-62 -17,-84 -11,-22 -28,-33 -51,-33 -21,0 -38,9 -52,27 -15,18 -22,41 -22,70l0 48z"/>
    <path id="3" class="fil5" d="M15174 9063l-77 0 0 -341 69 0 0 82c10,-32 24,-55 41,-70 17,-14 35,-22 53,-22 3,0 6,0 10,1l0 82c-39,0 -65,13 -77,38 -13,25 -19,49 -19,72l0 158z"/>
    <path id="4" class="fil5" d="M15542 8954l70 10c-9,30 -27,56 -53,76 -26,20 -59,30 -98,30 -47,0 -85,-16 -114,-48 -29,-31 -43,-74 -43,-128 0,-52 14,-94 43,-128 29,-34 69,-51 118,-51 49,0 86,17 113,50 26,33 40,76 40,128l-1 9 -233 0c0,23 2,42 6,56 5,14 13,26 26,36 13,10 30,16 49,16 38,0 64,-19 77,-56zm-5 -102c0,-24 -7,-44 -22,-60 -14,-15 -32,-23 -53,-23 -22,0 -39,7 -53,22 -14,14 -23,35 -25,61l153 0z"/>
    <path id="5" class="fil5" d="M15646 8985l72 -14c11,27 36,41 73,41 48,0 72,-14 72,-42 0,-9 -4,-16 -11,-22 -8,-6 -17,-10 -27,-12l-62 -12c-69,-13 -103,-47 -103,-101 0,-30 11,-55 33,-76 22,-21 54,-32 97,-32 72,0 116,27 132,79l-68 14c-8,-25 -28,-38 -62,-38 -41,0 -61,13 -61,38 0,18 16,30 49,37l74 15c56,12 85,44 85,98 0,37 -15,66 -44,84 -29,19 -64,28 -104,28 -35,0 -66,-7 -93,-21 -26,-14 -44,-36 -52,-64z"/>
    <path id="6" class="fil5" d="M16293 9063l-74 0c-6,-21 -10,-44 -11,-69 -21,51 -59,76 -116,76 -34,0 -61,-10 -81,-30 -21,-20 -31,-45 -31,-75 0,-78 68,-117 206,-117 5,0 12,0 22,0l0 -26c0,-35 -25,-53 -73,-53 -46,0 -73,18 -79,53l-65 -9c3,-29 18,-52 43,-70 26,-19 63,-28 111,-28 27,0 48,2 65,7 16,4 31,12 42,22 12,11 19,22 24,34 4,12 6,33 6,62l0 154c0,22 4,45 11,69zm-85 -173c-100,0 -149,23 -149,71 0,14 5,26 15,36 10,10 25,15 45,15 29,0 51,-9 66,-28 15,-18 23,-40 23,-63l0 -31z"/>
    <path id="7" class="fil5" d="M16333 8985l72 -14c11,27 35,41 73,41 48,0 71,-14 71,-42 0,-9 -3,-16 -11,-22 -7,-6 -16,-10 -26,-12l-62 -12c-69,-13 -103,-47 -103,-101 0,-30 11,-55 32,-76 22,-21 55,-32 98,-32 72,0 116,27 132,79l-69 14c-7,-25 -27,-38 -61,-38 -41,0 -62,13 -62,38 0,18 17,30 50,37l73 15c57,12 85,44 85,98 0,37 -14,66 -43,84 -30,19 -64,28 -104,28 -35,0 -66,-7 -93,-21 -27,-14 -44,-36 -52,-64z"/>
    <path class="fil6" d="M12862 8872c-38,-29 -59,-56 -91,-91 -37,-40 -55,-62 -105,-17 3,37 64,141 85,182 15,29 29,57 45,87 27,53 15,43 50,86 67,4 46,-19 107,-130 61,-113 123,-175 198,-268l117 -116c118,-123 -1,-108 -132,7 -16,14 -15,16 -33,30 -63,46 -213,211 -241,230z"/>
   </g>
   <g>
    <path class="fil5" d="M13903 10100l-86 0 0 -478 195 0c56,0 97,14 124,43 27,28 41,61 41,99 0,44 -15,79 -44,106 -29,27 -66,40 -111,40l-119 0 0 190zm0 -263l102 0c26,0 47,-7 61,-20 14,-13 21,-30 21,-52 0,-20 -7,-36 -20,-50 -13,-14 -36,-21 -70,-21l-94 0 0 143z"/>
    <path id="1" class="fil5" d="M14321 10100l-80 0 0 -353 73 0 0 84c10,-33 24,-57 42,-72 18,-15 36,-23 55,-23 3,0 6,0 11,0l0 86c-41,0 -68,13 -81,39 -13,26 -20,51 -20,75l0 164z"/>
    <path id="2" class="fil5" d="M14613 10107c-52,0 -92,-19 -120,-56 -27,-38 -41,-81 -41,-129 0,-53 15,-96 46,-131 30,-34 70,-52 120,-52 47,0 86,17 117,51 30,34 45,78 45,132 0,55 -16,100 -47,134 -32,34 -72,51 -120,51zm3 -66c53,0 80,-40 80,-120 0,-36 -6,-64 -19,-85 -13,-21 -33,-31 -59,-31 -28,0 -48,10 -62,32 -13,21 -19,50 -19,86 0,38 7,68 21,88 14,20 33,30 58,30z"/>
    <path id="3" class="fil5" d="M14948 10100l-83 0 0 -292 -52 0 0 -61 52 0c0,-36 5,-62 14,-79 9,-17 22,-30 39,-39 17,-9 37,-14 59,-14 12,0 28,1 48,4l0 63c-5,0 -8,-1 -11,-1 -23,0 -39,3 -47,7 -8,4 -14,10 -16,18 -2,7 -3,21 -3,41l77 0 0 61 -77 0 0 292zm196 -478l0 84 -82 0 0 -84 82 0zm0 125l0 353 -82 0 0 -353 82 0z"/>
    <path id="4" class="fil5" d="M15197 10018l74 -14c12,29 37,43 76,43 49,0 74,-14 74,-44 0,-9 -4,-17 -12,-23 -7,-6 -16,-10 -27,-12l-64 -12c-71,-14 -107,-49 -107,-105 0,-31 11,-57 34,-79 22,-22 56,-33 101,-33 74,0 120,28 137,82l-71 15c-8,-27 -29,-40 -64,-40 -42,0 -64,13 -64,40 0,18 17,31 52,38l76 15c59,13 88,46 88,102 0,39 -15,68 -45,87 -31,19 -67,29 -108,29 -37,0 -68,-7 -96,-22 -28,-15 -46,-37 -54,-67z"/>
    <path id="5" class="fil5" d="M15522 10018l75 -14c11,29 36,43 75,43 49,0 74,-14 74,-44 0,-9 -4,-17 -11,-23 -8,-6 -17,-10 -28,-12l-64 -12c-71,-14 -107,-49 -107,-105 0,-31 11,-57 34,-79 23,-22 56,-33 101,-33 75,0 120,28 137,82l-71 15c-8,-27 -29,-40 -64,-40 -42,0 -64,13 -64,40 0,18 18,31 52,38l76 15c59,13 88,46 88,102 0,39 -15,68 -45,87 -31,19 -66,29 -108,29 -36,0 -68,-7 -96,-22 -28,-15 -46,-37 -54,-67z"/>
    <path id="6" class="fil5" d="M15969 9705l-79 0 0 -83 79 0 0 83zm0 395l-79 0 0 -353 79 0 0 353z"/>
    <path id="7" class="fil5" d="M16203 10107c-52,0 -92,-19 -119,-56 -28,-38 -42,-81 -42,-129 0,-53 16,-96 46,-131 30,-34 71,-52 120,-52 48,0 87,17 117,51 31,34 46,78 46,132 0,55 -16,100 -48,134 -31,34 -71,51 -120,51zm3 -66c54,0 80,-40 80,-120 0,-36 -6,-64 -19,-85 -13,-21 -32,-31 -59,-31 -27,0 -48,10 -61,32 -13,21 -20,50 -20,86 0,38 7,68 21,88 14,20 34,30 58,30z"/>
    <path id="8" class="fil5" d="M16736 10100l-80 0 0 -221c0,-23 -5,-41 -16,-53 -11,-11 -23,-17 -39,-17 -20,0 -38,9 -54,27 -16,18 -24,46 -24,82l0 182 -79 0 0 -353 72 0 0 81c26,-59 62,-89 107,-89 31,0 58,10 80,30 22,19 33,54 33,103l0 228z"/>
    <path id="9" class="fil5" d="M17134 10100l-76 0c-7,-22 -11,-46 -13,-72 -21,53 -61,79 -119,79 -35,0 -64,-10 -85,-31 -21,-21 -32,-47 -32,-78 0,-81 71,-121 214,-121 5,0 13,0 22,0l0 -27c0,-36 -25,-55 -74,-55 -49,0 -76,19 -83,55l-68 -10c4,-29 19,-53 46,-72 26,-19 65,-29 115,-29 27,0 50,3 67,7 17,5 32,12 44,23 11,11 20,23 24,35 5,13 7,35 7,65l0 159c0,23 3,47 11,72zm-89 -180c-103,0 -154,24 -154,74 0,14 5,27 15,37 11,11 26,16 47,16 31,0 54,-10 69,-29 16,-19 23,-41 23,-66l0 -32z"/>
    <path id="10" class="fil5" d="M17298 9705l-80 0 0 -83 80 0 0 83zm0 395l-80 0 0 -353 80 0 0 353z"/>
    <path id="11" class="fil5" d="M17351 10018l74 -14c12,29 37,43 76,43 49,0 74,-14 74,-44 0,-9 -4,-17 -12,-23 -7,-6 -16,-10 -27,-12l-64 -12c-71,-14 -107,-49 -107,-105 0,-31 11,-57 34,-79 22,-22 56,-33 101,-33 74,0 120,28 137,82l-71 15c-8,-27 -29,-40 -64,-40 -42,0 -64,13 -64,40 0,18 17,31 52,38l76 15c59,13 88,46 88,102 0,39 -15,68 -45,87 -31,19 -67,29 -108,29 -37,0 -68,-7 -96,-22 -28,-15 -46,-37 -54,-67z"/>
    <path class="fil6" d="M12862 9914c-38,-29 -59,-56 -91,-91 -37,-40 -55,-62 -105,-17 3,37 64,141 85,182 15,29 29,57 45,87 27,53 15,43 50,86 67,4 46,-19 107,-130 61,-113 123,-175 198,-268l117 -116c118,-123 -1,-108 -132,7 -16,14 -15,16 -33,30 -63,46 -213,211 -241,230z"/>
   </g>
  </g>
 </g>
</svg>
