<?xml version="1.0" encoding="UTF-8"?>
<!DOCTYPE svg PUBLIC "-//W3C//DTD SVG 1.1//EN" "http://www.w3.org/Graphics/SVG/1.1/DTD/svg11.dtd">
<!-- Creator: CorelDRAW X7 -->
<svg xmlns="http://www.w3.org/2000/svg" xml:space="preserve" width="9.4136mm" height="11.6827mm" version="1.1" style="shape-rendering:geometricPrecision; text-rendering:geometricPrecision; image-rendering:optimizeQuality; fill-rule:evenodd; clip-rule:evenodd"
viewBox="0 0 67 83"
 xmlns:xlink="http://www.w3.org/1999/xlink">
 <defs>
  <style type="text/css">
   <![CDATA[
    .fil0 {fill:#F1592A}
   ]]>
  </style>
 </defs>
 <g id="Camada_x0020_1">
  <metadata id="CorelCorpID_0Corel-Layer"/>
  <g id="_2303645626752">
   <path class="fil0" d="M34 53c15,10 22,14 22,14 0,0 -7,5 -22,15 0,0 0,-9 0,-29z"/>
   <path class="fil0" d="M1 83c20,-12 30,-18 30,-18 0,-12 -1,-17 -1,-17 10,5 15,8 15,8 14,-9 22,-14 22,-14 -45,-28 -67,-42 -67,-42 1,55 1,83 1,83z"/>
  </g>
 </g>
</svg>
