<?xml version="1.0" encoding="UTF-8"?>
<!DOCTYPE svg PUBLIC "-//W3C//DTD SVG 1.1//EN" "http://www.w3.org/Graphics/SVG/1.1/DTD/svg11.dtd">
<!-- Creator: CorelDRAW X7 -->
<svg xmlns="http://www.w3.org/2000/svg" xml:space="preserve" width="28.1692mm" height="11.5011mm" version="1.1" style="shape-rendering:geometricPrecision; text-rendering:geometricPrecision; image-rendering:optimizeQuality; fill-rule:evenodd; clip-rule:evenodd"
viewBox="0 0 486 198"
 xmlns:xlink="http://www.w3.org/1999/xlink">
 <defs>
  <style type="text/css">
   <![CDATA[
    .fil1 {fill:black}
    .fil0 {fill:#F1592A}
    .fil2 {fill:black;fill-rule:nonzero}
   ]]>
  </style>
 </defs>
 <g id="Camada_x0020_1">
  <metadata id="CorelCorpID_0Corel-Layer"/>
  <g id="_2338164001552">
   <path class="fil0" d="M407 128c35,22 53,33 53,33 0,0 -18,12 -53,36 0,0 0,-23 0,-69z"/>
   <path class="fil0" d="M328 198c48,-28 71,-43 71,-43 0,-27 0,-41 0,-41 23,14 34,21 34,21 35,-23 53,-34 53,-34 -107,-67 -160,-101 -160,-101 1,132 2,198 2,198z"/>
  </g>
  <path class="fil1" d="M22 111c-15,0 -22,0 -22,0 0,-13 0,-31 0,-55 15,0 22,0 22,0 0,7 0,10 0,10 5,-7 13,-10 21,-10 0,12 0,19 0,19 -8,-1 -15,2 -21,9 0,17 0,26 0,27z"/>
  <path class="fil1" d="M77 98c6,0 12,-2 16,-6 6,7 10,11 10,11 -11,8 -23,11 -37,8 -16,-3 -24,-13 -23,-31 2,-14 11,-22 27,-24 16,-2 27,3 33,15 2,5 3,11 2,17 -28,0 -42,0 -42,0 1,7 5,11 14,10zm-2 -30c-7,1 -11,4 -11,11 14,0 21,0 21,0 -1,-7 -4,-10 -10,-11z"/>
  <path class="fil1" d="M139 111c-14,1 -25,-2 -33,-7 5,-8 7,-12 7,-12 8,6 16,8 25,6 5,-3 4,-6 -3,-7 -15,-2 -23,-7 -24,-15 -2,-10 3,-17 14,-20 8,-1 20,1 34,6 -5,7 -7,11 -7,11 -8,-6 -15,-7 -22,-5 -2,5 0,7 8,8 15,1 23,7 24,17 0,11 -8,17 -23,18z"/>
  <path class="fil1" d="M224 56c-14,0 -20,0 -20,0 -1,23 -1,35 -1,35 -5,4 -10,5 -15,1 0,-20 0,-32 0,-36 -15,0 -22,0 -22,0 0,28 0,41 0,41 2,9 8,14 18,14 8,1 14,-2 18,-7 0,2 0,5 0,7 15,0 22,0 22,0 0,-36 0,-55 0,-55z"/>
  <path class="fil1" d="M255 111c-9,0 -16,0 -22,0 0,-13 0,-40 0,-81 15,0 22,0 22,0 0,54 0,81 0,81z"/>
  <path class="fil1" d="M306 56c-10,0 -15,0 -15,0 -1,5 -1,-1 0,-16 0,0 -7,0 -21,-1 0,0 0,6 0,17 -7,0 -10,0 -10,0 -1,12 -1,18 -1,18 7,0 10,0 10,0 0,15 0,23 0,23 1,10 9,15 23,15 9,0 13,0 13,0 0,-12 0,-17 0,-17 -8,-1 -12,-1 -12,-1 -3,-1 -4,-4 -3,-10 0,-7 0,-11 0,-11 10,0 16,0 16,0 0,-11 0,-16 0,-17z"/>
  <polygon class="fil2" points="0,149 0,132 10,132 10,134 3,134 3,138 10,138 10,141 3,141 3,147 10,147 10,149 "/>
  <path id="1" class="fil2" d="M16 147l2 0c2,0 3,-1 3,-1 1,0 1,0 2,-1 1,0 1,-1 1,-2 1,-1 1,-2 1,-3 0,-1 0,-2 -1,-3 0,0 0,-1 -1,-2 -1,0 -1,0 -2,-1 0,0 -2,0 -3,0l-1 0 -1 0 0 13zm-3 2l0 -17 4 0c2,0 4,0 5,0 1,0 2,1 3,1 1,1 2,2 2,3 1,1 1,3 1,4 0,2 0,3 -1,4 0,2 -1,3 -2,3 -1,1 -2,1 -3,2 -1,0 -2,0 -4,0l-1 0 -4 0z"/>
  <path id="2" class="fil2" d="M31 132l3 0 0 10c0,2 0,3 1,4 1,1 2,1 3,1 2,0 3,0 4,-1 0,-1 1,-2 1,-4l0 -10 3 0 0 10c0,3 -1,5 -2,6 -1,1 -3,2 -6,2 -2,0 -4,-1 -5,-2 -1,-1 -2,-3 -2,-6l0 -10z"/>
  <path id="3" class="fil2" d="M64 136c-1,-1 -2,-1 -3,-2 -1,0 -2,0 -3,0 -2,0 -3,0 -5,2 -1,1 -1,2 -1,4 0,2 0,4 1,5 2,1 3,2 5,2 1,0 2,0 3,-1 1,0 2,-1 2,-1l0 3c0,0 -1,1 -2,1 -1,0 -2,1 -3,1 -1,0 -3,-1 -4,-1 -1,-1 -2,-1 -3,-2 -1,-1 -1,-2 -2,-3 0,-1 0,-2 0,-4 0,-1 0,-2 0,-3 1,-1 1,-2 2,-3 1,-1 2,-2 3,-2 1,-1 3,-1 4,-1 1,0 2,0 3,1 1,0 2,0 3,1l0 3z"/>
  <path id="4" class="fil2" d="M71 142l5 0 -2 -4c0,0 0,0 0,-1 -1,0 -1,0 -1,-1 0,1 0,1 0,1 0,1 0,1 0,1l-2 4zm8 7l-2 -4 -7 0 -2 4 -3 0 8 -18 9 18 -3 0z"/>
  <path id="5" class="fil2" d="M97 136c0,-1 -1,-1 -2,-2 -1,0 -2,0 -3,0 -2,0 -4,0 -5,2 -1,1 -2,2 -2,4 0,2 1,4 2,5 1,1 3,2 5,2 1,0 2,0 3,-1 1,0 1,-1 2,-1l0 3c0,0 -1,1 -2,1 -1,0 -2,1 -3,1 -1,0 -3,-1 -4,-1 -1,-1 -2,-1 -3,-2 -1,-1 -1,-2 -2,-3 0,-1 0,-2 0,-4 0,-1 0,-2 0,-3 1,-1 1,-2 2,-3 1,-1 2,-2 3,-2 1,-1 3,-1 4,-1 1,0 2,0 3,1 1,0 2,0 2,1l0 3zm-8 18l0 -1c0,0 1,0 1,0 1,0 1,0 2,0 0,0 0,0 1,0 0,0 0,-1 0,-1 0,0 0,0 0,-1 -1,0 -1,0 -2,0 0,0 0,0 0,0 0,0 0,0 0,0l0 -2 1 0 0 1 0 0c1,0 2,0 2,1 1,0 1,0 1,1 0,1 0,1 -1,2 0,0 -1,0 -2,0 0,0 -1,0 -1,0 -1,0 -2,0 -2,0z"/>
  <path id="6" class="fil2" d="M105 142l4 0 -1 -4c0,0 -1,0 -1,-1 0,0 0,0 0,-1 0,1 0,1 0,1 0,1 -1,1 -1,1l-1 4zm7 7l-2 -4 -6 0 -3 4 -3 0 9 -18 8 18 -3 0zm-2 -22c0,1 0,1 0,2 -1,0 -1,0 -2,0 0,0 0,0 0,0 0,0 0,0 0,0l-2 0c0,0 0,0 0,0 0,0 0,0 0,0 -1,0 -1,0 -1,0 0,0 0,0 0,1l-2 0c1,-1 1,-2 1,-2 1,-1 1,-1 2,-1 0,0 0,0 0,0 0,0 0,0 0,0l2 1c0,0 0,0 0,0 0,0 0,0 0,0 1,0 1,0 1,-1 0,0 0,0 0,0l1 0z"/>
  <path id="7" class="fil2" d="M132 140c0,-1 0,-1 0,-2 -1,-1 -1,-2 -2,-2 0,-1 -1,-1 -2,-2 -1,0 -1,0 -2,0 -1,0 -2,0 -3,0 -1,1 -1,1 -2,2 0,0 -1,1 -1,2 -1,1 -1,1 -1,2 0,1 0,2 1,3 0,1 1,1 1,2 1,1 1,1 2,1 1,1 2,1 3,1 1,0 1,0 2,-1 1,0 2,0 2,-1 1,-1 1,-1 2,-2 0,-1 0,-2 0,-3zm3 0c0,2 0,3 -1,4 0,1 -1,2 -2,3 -1,1 -2,1 -3,2 -1,0 -2,1 -3,1 -2,0 -3,-1 -4,-1 -1,-1 -2,-1 -3,-2 -1,-1 -1,-2 -2,-3 0,-1 -1,-2 -1,-4 0,-1 1,-2 1,-3 1,-1 1,-2 2,-3 1,-1 2,-2 3,-2 1,-1 2,-1 4,-1 1,0 2,0 3,1 1,0 2,1 3,2 1,1 2,2 2,3 1,1 1,2 1,3z"/>
  <polygon id="8" class="fil2" points="146,149 146,132 156,132 156,134 149,134 149,138 156,138 156,141 149,141 149,147 156,147 156,149 "/>
  <path id="9" class="fil2" d="M169 139l1 0c1,0 2,0 3,-1 0,0 1,-1 1,-1 0,-1 -1,-2 -1,-2 -1,-1 -2,-1 -3,-1l-1 0 0 5zm0 2l0 8 -3 0 0 -17 4 0c2,0 3,0 3,0 1,0 1,0 2,0 0,1 1,1 1,2 1,1 1,2 1,2 0,1 0,2 -1,3 0,0 -1,1 -1,1 -1,1 -1,1 -2,1 0,0 -1,0 -3,0l0 0 -1 0z"/>
  <path id="10" class="fil2" d="M182 139l1 0c1,0 2,0 3,-1 0,0 0,0 0,-1 0,-1 0,-2 0,-2 -1,-1 -2,-1 -3,-1l-1 0 0 5zm0 2l0 8 -3 0 0 -17 4 0c1,0 2,0 3,0 1,0 1,0 2,1 0,0 1,1 1,1 0,1 0,2 0,2 0,2 0,3 -1,4 0,0 -1,1 -3,1l6 8 -3 0 -6 -8 0 0z"/>
  <path id="11" class="fil2" d="M208 140c0,-1 0,-1 -1,-2 0,-1 0,-2 -1,-2 -1,-1 -1,-1 -2,-2 -1,0 -2,0 -2,0 -1,0 -2,0 -3,0 -1,1 -1,1 -2,2 -1,0 -1,1 -1,2 -1,1 -1,1 -1,2 0,1 0,2 1,3 0,1 0,1 1,2 1,1 1,1 2,1 1,1 2,1 3,1 0,0 1,0 2,-1 1,0 1,0 2,-1 1,-1 1,-1 1,-2 1,-1 1,-2 1,-3zm3 0c0,2 0,3 -1,4 0,1 -1,2 -2,3 -1,1 -2,1 -3,2 -1,0 -2,1 -3,1 -2,0 -3,-1 -4,-1 -1,-1 -2,-1 -3,-2 -1,-1 -2,-2 -2,-3 -1,-1 -1,-2 -1,-4 0,-1 0,-2 1,-3 0,-1 1,-2 2,-3 1,-1 2,-2 3,-2 1,-1 2,-1 4,-1 1,0 2,0 3,1 1,0 2,1 3,2 1,1 2,2 2,3 1,1 1,2 1,3z"/>
  <path id="12" class="fil2" d="M228 136c-1,-1 -1,-1 -2,-2 -1,0 -2,0 -3,0 -2,0 -4,0 -5,2 -1,1 -2,2 -2,4 0,2 1,4 2,5 1,1 3,2 5,2 1,0 2,0 3,-1 0,0 1,-1 2,-1l0 3c-1,0 -1,1 -2,1 -1,0 -2,1 -3,1 -2,0 -3,-1 -4,-1 -1,-1 -2,-1 -3,-2 -1,-1 -1,-2 -2,-3 0,-1 -1,-2 -1,-4 0,-1 1,-2 1,-3 1,-1 1,-2 2,-3 1,-1 2,-2 3,-2 1,-1 2,-1 4,-1 1,0 2,0 3,1 1,0 2,0 2,1l0 3z"/>
  <polygon id="13" class="fil2" points="232,149 232,132 242,132 242,134 235,134 235,138 242,138 242,141 235,141 235,147 242,147 242,149 "/>
  <path id="14" class="fil2" d="M244 146l2 -1c0,0 1,1 1,1 1,1 2,1 3,1 0,0 1,0 2,-1 0,0 0,-1 0,-2 0,-1 -1,-2 -2,-2 -1,-1 -1,-1 -1,-1 -2,-1 -3,-1 -4,-2 0,-1 -1,-2 -1,-3 0,-1 1,-3 2,-4 1,0 2,-1 4,-1 1,0 2,0 3,1 1,0 1,1 2,2l-3 1c0,0 0,-1 -1,-1 0,0 -1,0 -1,0 -1,0 -2,0 -2,0 0,1 -1,1 -1,2 0,1 1,2 3,3 0,0 1,0 1,0 1,1 3,2 3,2 1,1 1,2 1,3 0,2 0,3 -1,4 -1,1 -3,2 -5,2 -1,0 -2,-1 -3,-1 -1,-1 -2,-2 -2,-3z"/>
  <path id="15" class="fil2" d="M257 146l3 -1c0,0 0,1 1,1 0,1 1,1 2,1 1,0 1,0 2,-1 0,0 1,-1 1,-2 0,-1 -1,-2 -3,-2 0,-1 0,-1 0,-1 -2,-1 -4,-1 -4,-2 -1,-1 -1,-2 -1,-3 0,-1 0,-3 1,-4 1,0 2,-1 4,-1 1,0 2,0 3,1 1,0 2,1 2,2l-2 1c0,0 -1,-1 -1,-1 -1,0 -1,0 -2,0 0,0 -1,0 -2,0 0,1 0,1 0,2 0,1 1,2 3,3 0,0 0,0 0,0 2,1 3,2 4,2 0,1 1,2 1,3 0,2 -1,3 -2,4 -1,1 -2,2 -4,2 -2,0 -3,-1 -4,-1 -1,-1 -1,-2 -2,-3z"/>
  <path id="16" class="fil2" d="M287 140c0,-1 0,-1 -1,-2 0,-1 -1,-2 -1,-2 -1,-1 -1,-1 -2,-2 -1,0 -2,0 -3,0 0,0 -1,0 -2,0 -1,1 -2,1 -2,2 -1,0 -1,1 -2,2 0,1 0,1 0,2 0,1 0,2 0,3 1,1 1,1 2,2 0,1 1,1 2,1 1,1 1,1 2,1 1,0 2,0 3,-1 1,0 1,0 2,-1 0,-1 1,-1 1,-2 1,-1 1,-2 1,-3zm3 0c0,2 -1,3 -1,4 0,1 -1,2 -2,3 -1,1 -2,1 -3,2 -1,0 -2,1 -4,1 -1,0 -2,-1 -3,-1 -1,-1 -2,-1 -3,-2 -1,-1 -2,-2 -2,-3 -1,-1 -1,-2 -1,-4 0,-1 0,-2 1,-3 0,-1 1,-2 2,-3 1,-1 2,-2 3,-2 1,-1 2,-1 3,-1 2,0 3,0 4,1 1,0 2,1 3,2 1,1 2,2 2,3 0,1 1,2 1,3z"/>
  <path id="17" class="fil2" d="M292 146l2 -1c0,0 1,1 1,1 1,1 2,1 3,1 0,0 1,0 2,-1 0,0 0,-1 0,-2 0,-1 0,-2 -2,-2 0,-1 -1,-1 -1,-1 -2,-1 -3,-1 -4,-2 0,-1 -1,-2 -1,-3 0,-1 1,-3 2,-4 1,0 2,-1 4,-1 1,0 2,0 3,1 1,0 1,1 2,2l-2 1c-1,0 -1,-1 -2,-1 0,0 0,0 -1,0 -1,0 -1,0 -2,0 0,1 -1,1 -1,2 0,1 1,2 3,3 1,0 1,0 1,0 2,1 3,2 3,2 1,1 1,2 1,3 0,2 0,3 -1,4 -1,1 -3,2 -4,2 -2,0 -3,-1 -4,-1 -1,-1 -2,-2 -2,-3z"/>
  <polygon id="18" class="fil2" points="145,178 145,161 155,161 155,163 148,163 148,168 155,168 155,170 148,170 148,176 155,176 155,178 "/>
  <path id="19" class="fil2" d="M173 170c0,0 0,-1 0,-1 -1,-1 -1,-1 -1,-2 0,1 0,1 0,2 0,0 0,0 0,1l-5 9 -5 -9c0,-1 0,-1 0,-1 0,-1 0,-1 0,-2 0,1 -1,1 -1,2 0,0 0,0 0,1l-2 8 -2 0 4 -18 5 11c0,0 0,1 0,1 1,1 1,1 1,2 0,-1 0,-1 1,-2 0,0 0,-1 0,-1l5 -11 4 18 -2 0 -2 -8z"/>
  <path id="20" class="fil2" d="M182 168l1 0c2,0 3,0 3,0 1,-1 1,-1 1,-2 0,-1 0,-2 -1,-2 0,0 -1,-1 -3,-1l-1 0 0 5zm0 3l0 7 -2 0 0 -17 4 0c1,0 2,0 3,0 0,0 1,1 1,1 1,0 1,1 2,1 0,1 0,2 0,3 0,1 0,1 0,2 -1,1 -1,1 -2,2 0,0 -1,0 -1,0 -1,1 -2,1 -3,1l-1 0 -1 0z"/>
  <path id="21" class="fil2" d="M195 168l1 0c1,0 2,0 3,0 0,0 1,-1 1,-2 0,-1 -1,-2 -1,-2 -1,0 -2,-1 -3,-1l-1 0 0 5zm0 3l0 7 -2 0 0 -17 4 0c1,0 2,0 2,0 1,0 1,1 2,1 0,0 1,1 1,2 0,0 1,1 1,2 0,1 -1,2 -1,3 -1,1 -2,1 -3,1l6 8 -4 0 -5 -7 -1 0z"/>
  <polygon id="22" class="fil2" points="206,178 206,161 216,161 216,163 209,163 209,168 216,168 216,170 209,170 209,176 216,176 216,178 "/>
  <path id="23" class="fil2" d="M218 175l3 -1c0,1 0,1 1,2 0,0 1,0 2,0 1,0 2,0 2,0 1,-1 1,-1 1,-2 0,-1 -1,-2 -3,-3 0,0 0,0 0,0 -2,-1 -4,-2 -4,-3 -1,-1 -1,-2 -1,-3 0,-1 0,-2 1,-3 1,-1 3,-1 4,-1 1,0 2,0 3,0 1,1 2,2 2,2l-2 2c0,-1 -1,-1 -1,-2 -1,0 -1,0 -2,0 0,0 -1,0 -1,1 -1,0 -1,1 -1,1 0,1 1,2 3,3 0,0 0,0 0,0 2,1 3,2 4,3 0,0 1,1 1,3 0,1 -1,2 -2,3 -1,1 -2,2 -4,2 -2,0 -3,0 -4,-1 -1,-1 -1,-2 -2,-3z"/>
  <path id="24" class="fil2" d="M237 172l4 0 -1 -4c-1,-1 -1,-1 -1,-1 0,-1 0,-1 0,-1 0,0 0,0 0,1 0,0 -1,0 -1,1l-1 4zm7 6l-2 -4 -7 0 -2 4 -3 0 9 -18 8 18 -3 0z"/>
  <path id="25" class="fil2" d="M252 168l0 0c2,0 3,0 3,0 1,0 1,-1 1,-2 0,-1 0,-2 -1,-2 0,0 -1,-1 -3,-1l0 0 0 5zm0 3l0 7 -3 0 0 -17 4 0c1,0 2,0 3,0 0,0 1,1 1,1 1,0 1,1 2,2 0,0 0,1 0,2 0,1 0,2 -1,3 -1,1 -2,1 -3,1l6 8 -3 0 -6 -7 0 0z"/>
  <polygon id="26" class="fil2" points="263,178 263,161 266,161 266,178 "/>
  <path id="27" class="fil2" d="M273 172l5 0 -1 -4c-1,-1 -1,-1 -1,-1 0,-1 0,-1 0,-1 0,0 0,0 0,1 -1,0 -1,0 -1,1l-2 4zm8 6l-2 -4 -7 0 -2 4 -3 0 9 -18 8 18 -3 0z"/>
  <polygon id="28" class="fil2" points="286,178 286,161 289,161 289,178 "/>
  <path id="29" class="fil2" d="M292 175l2 -1c0,1 1,1 1,2 1,0 2,0 3,0 0,0 1,0 2,0 0,-1 0,-1 0,-2 0,-1 0,-2 -2,-3 0,0 -1,0 -1,0 -2,-1 -3,-2 -4,-3 0,-1 -1,-2 -1,-3 0,-1 1,-2 2,-3 1,-1 2,-1 4,-1 1,0 2,0 3,0 1,1 1,2 2,2l-2 2c-1,-1 -1,-1 -2,-2 0,0 0,0 -1,0 -1,0 -1,0 -2,1 0,0 -1,1 -1,1 0,1 1,2 3,3 1,0 1,0 1,0 2,1 3,2 3,3 1,0 1,1 1,3 0,1 0,2 -1,3 -1,1 -3,2 -4,2 -2,0 -3,0 -4,-1 -1,-1 -2,-2 -2,-3z"/>
 </g>
</svg>
